<svg width="33" height="33" viewBox="0 0 33 33" fill="none" xmlns="http://www.w3.org/2000/svg">
<circle cx="16.5" cy="16.5" r="16.5" fill="#F5B300"/>
<path d="M12.723 10.3313C13.1964 10.4604 13.6698 10.5465 14.1432 10.6756C14.6166 10.8047 15.09 10.8908 15.5634 11.0199C15.6925 11.0629 15.7355 11.0199 15.7785 10.8908C15.9507 10.1592 16.1228 9.47061 16.295 8.739C16.338 8.60989 16.381 8.56685 16.5101 8.60989C16.9405 8.739 17.3278 8.82507 17.7582 8.91114C17.8873 8.95418 17.8873 8.99721 17.8443 9.08328C17.6721 9.77186 17.5 10.5035 17.3278 11.192C17.3278 11.2351 17.3278 11.2781 17.2848 11.3642C17.6291 11.4503 18.0164 11.5363 18.3607 11.6224C18.4037 11.6224 18.4468 11.5363 18.4898 11.4933C18.6189 10.9338 18.748 10.4174 18.9202 9.85793C18.9632 9.68579 19.0062 9.51364 19.0493 9.3415C19.0493 9.25543 19.0923 9.21239 19.1784 9.25543C19.6087 9.38454 20.0391 9.47061 20.5125 9.59972C20.5555 9.59972 20.5555 9.64275 20.5986 9.64275C20.4695 10.2022 20.3404 10.7187 20.2112 11.2351C20.1682 11.4503 20.1252 11.6654 20.0391 11.8806C19.9961 12.0097 20.0391 12.0528 20.1682 12.0958C20.6416 12.311 21.115 12.5262 21.5884 12.7413C22.0188 12.9996 22.4061 13.3438 22.7073 13.7742C23.0947 14.4197 23.1377 15.1083 22.9655 15.7969C22.8364 16.2703 22.6643 16.7007 22.32 17.0449C22.0618 17.3032 21.7175 17.4753 21.3732 17.6044C21.3302 17.6044 21.2871 17.6474 21.2011 17.6474C21.3732 17.7766 21.5454 17.8626 21.7175 17.9917C22.2339 18.3791 22.5782 18.8525 22.7504 19.455C22.8364 19.9284 22.7934 20.4448 22.6643 20.9182C22.4922 21.5207 22.277 22.0371 21.8896 22.5105C21.4163 23.07 20.8137 23.3712 20.1252 23.4573C19.2214 23.5864 18.3607 23.5003 17.5 23.3712C17.3709 23.3282 17.2848 23.3712 17.2418 23.5003C17.0696 24.1889 16.8975 24.9205 16.7253 25.6091C16.6823 25.7812 16.6823 25.8243 16.4671 25.7382C16.0798 25.6521 15.6494 25.523 15.2621 25.437C15.133 25.3939 15.133 25.3509 15.176 25.2648C15.3482 24.5332 15.5203 23.8016 15.7355 23.113C15.7355 23.0269 15.7785 22.9839 15.6925 22.9409C15.3482 22.8548 15.0039 22.7687 14.6166 22.6827C14.5305 23.07 14.4014 23.4573 14.3153 23.8446C14.2292 24.232 14.1001 24.6193 14.0141 25.0066C13.971 25.0927 13.971 25.1357 13.8419 25.0927C13.4116 24.9636 12.9812 24.8775 12.5508 24.7914C12.4217 24.7484 12.4217 24.7053 12.4648 24.6193C12.6369 23.8877 12.8091 23.1561 13.0242 22.4675C13.0242 22.4244 13.0673 22.3814 13.0673 22.2953C12.0774 22.0371 11.0876 21.7789 10.0547 21.5207C10.1408 21.3485 10.1839 21.2194 10.2699 21.0473C10.4421 20.66 10.6142 20.2726 10.7433 19.9284C10.7864 19.7992 10.8294 19.7992 10.9585 19.7992C11.2598 19.8853 11.604 19.9714 11.9053 20.0144C12.2496 20.1005 12.5078 19.9284 12.5508 19.6271C13.1103 17.4323 13.6698 15.2374 14.1862 12.9996C14.2723 12.6553 14.0571 12.2679 13.6698 12.1388C13.2824 12.0097 12.8951 11.9237 12.5508 11.8376C12.4648 11.8376 12.4217 11.7946 12.4648 11.7085C12.5939 11.2351 12.723 10.7187 12.8521 10.2453C12.6799 10.3744 12.6799 10.3744 12.723 10.3313ZM14.9178 20.9612C14.9609 20.9612 15.0039 21.0043 15.0039 21.0043C15.6925 21.1764 16.4241 21.3916 17.1557 21.4346C17.6721 21.4776 18.1455 21.4777 18.6189 21.3055C19.4366 21.0473 19.7809 19.9714 19.3075 19.2828C19.0923 18.9385 18.748 18.7233 18.4037 18.5082C17.6291 18.0778 16.7253 17.9057 15.8646 17.7335C15.7355 17.6905 15.7355 17.7335 15.6925 17.8626C15.6064 18.293 15.4773 18.6803 15.3912 19.1107C15.2191 19.7132 15.09 20.3157 14.9178 20.9612ZM18.5328 16.5715C18.6189 16.5715 18.8341 16.5285 19.0062 16.4855C19.8239 16.3133 20.2543 15.3665 19.8239 14.6349C19.6087 14.2476 19.2214 13.9894 18.8341 13.8172C18.2316 13.559 17.6291 13.4299 16.9835 13.2578C16.8544 13.2147 16.8114 13.2578 16.7684 13.3869C16.5532 14.2906 16.338 15.1514 16.0798 16.0551C16.0368 16.1412 16.0798 16.1842 16.1659 16.2273C16.338 16.2703 16.4671 16.3133 16.6393 16.3564C17.2848 16.4424 17.8443 16.5715 18.5328 16.5715Z" fill="#FDFDFF"/>
</svg>
