<svg width="14" height="17" viewBox="0 0 14 17" fill="none" xmlns="http://www.w3.org/2000/svg">
<path d="M3 16.5C2.71667 16.5 2.479 16.404 2.287 16.212C2.095 16.02 1.99934 15.7827 2 15.5V14.5H1C0.71667 14.5 0.479004 14.404 0.287004 14.212C0.0950036 14.02 -0.000663206 13.7827 3.4602e-06 13.5V3.5C3.4602e-06 3.21667 0.0960036 2.979 0.288004 2.787C0.480004 2.595 0.717337 2.49934 1 2.5H2V1.5C2 1.21667 2.096 0.979004 2.288 0.787004C2.48 0.595004 2.71734 0.499337 3 0.500003C3.28334 0.500003 3.521 0.596004 3.713 0.788004C3.905 0.980004 4.00067 1.21734 4 1.5V2.5H5C5.28334 2.5 5.521 2.596 5.713 2.788C5.905 2.98 6.00067 3.21734 6 3.5V13.5C6 13.7833 5.904 14.021 5.712 14.213C5.52 14.405 5.28267 14.5007 5 14.5H4V15.5C4 15.7833 3.904 16.021 3.712 16.213C3.52 16.405 3.28267 16.5007 3 16.5ZM11 16.5C10.7167 16.5 10.479 16.404 10.287 16.212C10.095 16.02 9.99934 15.7827 10 15.5V11.5H9C8.71667 11.5 8.479 11.404 8.287 11.212C8.095 11.02 7.99934 10.7827 8 10.5V5.5C8 5.21667 8.096 4.979 8.288 4.787C8.48 4.595 8.71734 4.49934 9 4.5H10V1.5C10 1.21667 10.096 0.979004 10.288 0.787004C10.48 0.595004 10.7173 0.499337 11 0.500003C11.2833 0.500003 11.521 0.596004 11.713 0.788004C11.905 0.980004 12.0007 1.21734 12 1.5V4.5H13C13.2833 4.5 13.521 4.596 13.713 4.788C13.905 4.98 14.0007 5.21734 14 5.5V10.5C14 10.7833 13.904 11.021 13.712 11.213C13.52 11.405 13.2827 11.5007 13 11.5H12V15.5C12 15.7833 11.904 16.021 11.712 16.213C11.52 16.405 11.2827 16.5007 11 16.5Z" fill="#ADADAD"/>
</svg>
