<svg width="33" height="33" viewBox="0 0 33 33" fill="none" xmlns="http://www.w3.org/2000/svg">
<circle cx="16.5" cy="16.5" r="16.5" fill="#0033AD"/>
<path d="M13.003 17.1228C12.9839 17.4549 13.0975 17.781 13.3187 18.0294C13.5399 18.2778 13.8507 18.4282 14.1828 18.4477H14.2512C14.4957 18.4474 14.7349 18.3755 14.9391 18.2409C15.1432 18.1063 15.3035 17.9149 15.4002 17.6902C15.4968 17.4655 15.5256 17.2175 15.4829 16.9767C15.4401 16.7359 15.3279 16.5129 15.1599 16.3351C14.9919 16.1574 14.7755 16.0328 14.5375 15.9766C14.2995 15.9204 14.0502 15.9351 13.8205 16.019C13.5908 16.1028 13.3906 16.2521 13.2447 16.4484C13.0988 16.6447 13.0136 16.8794 12.9996 17.1235L13.003 17.1228Z" fill="#FDFDFF"/>
<path d="M8.33328 16.8053C8.25344 16.8008 8.17407 16.8201 8.1052 16.8608C8.03633 16.9014 7.98104 16.9615 7.94633 17.0336C7.91163 17.1056 7.89905 17.1863 7.9102 17.2655C7.92135 17.3447 7.95572 17.4188 8.00897 17.4784C8.06221 17.5381 8.13195 17.5806 8.20936 17.6006C8.28677 17.6207 8.36839 17.6173 8.44389 17.591C8.51939 17.5646 8.58539 17.5165 8.63354 17.4527C8.6817 17.3888 8.70985 17.3122 8.71444 17.2323C8.71758 17.1792 8.7102 17.126 8.69273 17.0758C8.67525 17.0256 8.64802 16.9793 8.6126 16.9396C8.57718 16.8999 8.53427 16.8676 8.48634 16.8446C8.4384 16.8215 8.38639 16.8082 8.33328 16.8053Z" fill="#FDFDFF"/>
<path d="M12.9236 9.85478C12.9947 9.81827 13.0534 9.76153 13.0924 9.69172C13.1313 9.62191 13.1487 9.54214 13.1424 9.46246C13.1361 9.38277 13.1064 9.30673 13.0569 9.24391C13.0075 9.18109 12.9406 9.1343 12.8646 9.10942C12.7887 9.08454 12.7071 9.08269 12.63 9.1041C12.553 9.12552 12.4841 9.16923 12.4319 9.22975C12.3796 9.29027 12.3465 9.36488 12.3366 9.4442C12.3267 9.52351 12.3404 9.60399 12.3762 9.67549C12.4002 9.72335 12.4334 9.76599 12.474 9.80094C12.5146 9.83589 12.5617 9.86246 12.6126 9.87913C12.6635 9.89579 12.7171 9.90222 12.7705 9.89805C12.8239 9.89387 12.8759 9.87916 12.9236 9.85478Z" fill="#FDFDFF"/>
<path d="M14.1944 12.0706C14.3048 12.0149 14.3963 11.9277 14.4571 11.82C14.518 11.7123 14.5456 11.5891 14.5364 11.4657C14.5272 11.3424 14.4817 11.2245 14.4055 11.1271C14.3294 11.0296 14.2261 10.9569 14.1086 10.9182C13.9911 10.8794 13.8648 10.8764 13.7456 10.9094C13.6264 10.9424 13.5197 11.0101 13.439 11.1038C13.3582 11.1974 13.307 11.313 13.2919 11.4357C13.2768 11.5585 13.2984 11.683 13.3541 11.7934C13.391 11.8668 13.4421 11.9322 13.5043 11.9859C13.5665 12.0395 13.6388 12.0804 13.7168 12.1061C13.7948 12.1319 13.8772 12.142 13.9591 12.1359C14.0411 12.1298 14.121 12.1076 14.1944 12.0706Z" fill="#FDFDFF"/>
<path d="M9.91814 13.5945C10.0033 13.6505 10.1032 13.68 10.2051 13.6793C10.3071 13.6785 10.4065 13.6475 10.4908 13.5902C10.5752 13.5329 10.6406 13.4519 10.6789 13.3574C10.7171 13.2629 10.7265 13.1592 10.7058 13.0594C10.6851 12.9596 10.6353 12.8681 10.5626 12.7967C10.4899 12.7252 10.3977 12.6768 10.2975 12.6578C10.1974 12.6387 10.0938 12.6498 9.99999 12.6896C9.90615 12.7295 9.82622 12.7962 9.77033 12.8815C9.69547 12.9957 9.66899 13.1349 9.6967 13.2686C9.72442 13.4023 9.80406 13.5195 9.91814 13.5945Z" fill="#FDFDFF"/>
<path d="M10.6798 16.5774C10.5563 16.5705 10.4335 16.6003 10.327 16.6631C10.2204 16.7259 10.1349 16.8188 10.0812 16.9302C10.0274 17.0416 10.008 17.1665 10.0252 17.2889C10.0424 17.4114 10.0955 17.526 10.1778 17.6183C10.2602 17.7106 10.368 17.7764 10.4878 17.8074C10.6075 17.8384 10.7337 17.8332 10.8505 17.7925C10.9673 17.7518 11.0694 17.6773 11.1438 17.5786C11.2183 17.4799 11.2619 17.3613 11.269 17.2378C11.2783 17.0721 11.2215 16.9095 11.111 16.7857C11.0005 16.6619 10.8454 16.587 10.6798 16.5774Z" fill="#FDFDFF"/>
<path d="M9.98657 20.7825C9.89563 20.8285 9.82036 20.9004 9.77027 20.9891C9.72018 21.0778 9.69752 21.1794 9.70516 21.281C9.7128 21.3826 9.75039 21.4797 9.81318 21.5599C9.87597 21.6402 9.96114 21.7 10.0579 21.7319C10.1547 21.7637 10.2588 21.7662 10.357 21.7389C10.4551 21.7116 10.543 21.6558 10.6095 21.5786C10.676 21.5014 10.7181 21.4062 10.7305 21.3051C10.7428 21.2039 10.725 21.1014 10.6791 21.0104C10.6486 20.9499 10.6065 20.8961 10.5552 20.8519C10.5039 20.8077 10.4444 20.7741 10.3801 20.7529C10.3157 20.7318 10.2479 20.7235 10.1804 20.7286C10.1129 20.7336 10.047 20.752 9.98657 20.7825Z" fill="#FDFDFF"/>
<path d="M12.4179 15.2848C12.5397 15.3646 12.6824 15.4065 12.8281 15.4052C12.9737 15.4039 13.1156 15.3595 13.236 15.2775C13.3564 15.1955 13.4497 15.0797 13.5042 14.9447C13.5588 14.8097 13.5721 14.6615 13.5424 14.5189C13.5127 14.3764 13.4415 14.2458 13.3376 14.1437C13.2337 14.0417 13.1019 13.9727 12.9589 13.9455C12.8158 13.9184 12.6679 13.9342 12.5339 13.9911C12.3998 14.048 12.2856 14.1434 12.2058 14.2652C12.1527 14.346 12.116 14.4365 12.0979 14.5316C12.0798 14.6266 12.0807 14.7243 12.1004 14.819C12.1201 14.9137 12.1583 15.0036 12.2127 15.0835C12.2672 15.1634 12.337 15.2318 12.4179 15.2848Z" fill="#FDFDFF"/>
<path d="M20.1315 12.0213C20.2352 12.0889 20.3566 12.1243 20.4804 12.123C20.6042 12.1216 20.7248 12.0836 20.827 12.0137C20.9292 11.9438 21.0084 11.8452 21.0546 11.7303C21.1007 11.6154 21.1118 11.4894 21.0863 11.3682C21.0609 11.247 21.0001 11.1361 20.9116 11.0495C20.8232 10.9629 20.711 10.9044 20.5893 10.8815C20.4676 10.8586 20.3419 10.8723 20.228 10.9209C20.1141 10.9694 20.0172 11.0506 19.9494 11.1543C19.9043 11.2231 19.8732 11.3002 19.858 11.3811C19.8427 11.4619 19.8436 11.545 19.8605 11.6256C19.8774 11.7061 19.91 11.7825 19.9565 11.8504C20.003 11.9184 20.0625 11.9764 20.1315 12.0213Z" fill="#FDFDFF"/>
<path d="M21.4152 9.81236C21.4822 9.85629 21.5608 9.87936 21.6409 9.87864C21.7211 9.87792 21.7992 9.85344 21.8654 9.80831C21.9317 9.76317 21.983 9.69941 22.013 9.62508C22.043 9.55075 22.0502 9.4692 22.0339 9.39075C22.0175 9.31229 21.9782 9.24046 21.921 9.18434C21.8638 9.12822 21.7912 9.09032 21.7124 9.07546C21.6337 9.0606 21.5523 9.06943 21.4785 9.10084C21.4048 9.13225 21.342 9.18482 21.2982 9.25191C21.2395 9.34176 21.2188 9.45126 21.2407 9.55634C21.2627 9.66143 21.3254 9.75351 21.4152 9.81236Z" fill="#FDFDFF"/>
<path d="M20.23 15.9308C20.0658 15.9213 19.9013 15.9443 19.7459 15.9985C19.5906 16.0526 19.4475 16.1368 19.3247 16.2462C19.0767 16.4673 18.9266 16.7778 18.9076 17.1095C18.8885 17.4412 19.002 17.7668 19.223 18.0148C19.4441 18.2628 19.7546 18.4129 20.0863 18.4319C20.1102 18.4319 20.1349 18.4319 20.1588 18.4319C20.4004 18.4318 20.6369 18.3618 20.8396 18.2303C21.0423 18.0989 21.2027 17.9116 21.3013 17.691C21.4 17.4705 21.4327 17.2261 21.3956 16.9873C21.3585 16.7486 21.2532 16.5257 21.0922 16.3455C20.9832 16.2226 20.8509 16.1226 20.7028 16.0514C20.5548 15.9802 20.394 15.9392 20.23 15.9308Z" fill="#FDFDFF"/>
<path d="M14.6057 15.1979C14.7096 15.4056 14.8695 15.5801 15.0673 15.7019C15.2651 15.8236 15.4929 15.8877 15.7252 15.887C15.9393 15.887 16.1499 15.8322 16.3368 15.7277C16.5237 15.6232 16.6807 15.4726 16.7929 15.2902C16.905 15.1078 16.9685 14.8997 16.9774 14.6857C16.9862 14.4718 16.9401 14.2591 16.8433 14.0681C16.7387 13.8613 16.5785 13.6878 16.3808 13.5669C16.183 13.4461 15.9556 13.3827 15.7238 13.3838C15.5103 13.3841 15.3005 13.439 15.1142 13.5433C14.9279 13.6475 14.7713 13.7976 14.6593 13.9793C14.5473 14.161 14.4836 14.3683 14.4742 14.5816C14.4648 14.7949 14.5101 15.007 14.6057 15.1979Z" fill="#FDFDFF"/>
<path d="M24.4255 13.5932C24.5164 13.5473 24.5918 13.4754 24.6419 13.3867C24.692 13.2981 24.7148 13.1965 24.7072 13.0949C24.6996 12.9933 24.6621 12.8962 24.5994 12.8159C24.5367 12.7356 24.4516 12.6757 24.3548 12.6438C24.2581 12.6119 24.154 12.6093 24.0559 12.6365C23.9577 12.6637 23.8697 12.7194 23.8032 12.7965C23.7366 12.8737 23.6944 12.9688 23.682 13.0699C23.6695 13.171 23.6872 13.2736 23.733 13.3646C23.7946 13.4867 23.9021 13.5793 24.0319 13.6222C24.1618 13.665 24.3033 13.6546 24.4255 13.5932Z" fill="#FDFDFF"/>
<path d="M21.2496 13.9921C21.1195 14.0576 21.0118 14.1602 20.9401 14.287C20.8683 14.4137 20.8358 14.5588 20.8465 14.7041C20.8573 14.8493 20.9108 14.9881 21.0005 15.1029C21.0901 15.2177 21.2117 15.3033 21.35 15.3489C21.4883 15.3946 21.637 15.3982 21.7774 15.3593C21.9177 15.3205 22.0434 15.2408 22.1385 15.1306C22.2336 15.0203 22.2938 14.8842 22.3116 14.7397C22.3294 14.5952 22.3039 14.4486 22.2384 14.3185C22.195 14.2321 22.135 14.1551 22.0618 14.0919C21.9885 14.0287 21.9036 13.9806 21.8117 13.9503C21.7199 13.9199 21.623 13.908 21.5265 13.9152C21.43 13.9224 21.336 13.9485 21.2496 13.9921Z" fill="#FDFDFF"/>
<path d="M17.1588 9.62349C17.2606 9.62928 17.3618 9.60477 17.4496 9.55304C17.5374 9.50131 17.608 9.42469 17.6522 9.33288C17.6965 9.24107 17.7126 9.13819 17.6984 9.03725C17.6842 8.93632 17.6404 8.84186 17.5725 8.76583C17.5046 8.6898 17.4157 8.63561 17.317 8.61012C17.2183 8.58463 17.1142 8.58899 17.018 8.62263C16.9218 8.65628 16.8377 8.71771 16.7764 8.79915C16.7151 8.88058 16.6794 8.97837 16.6736 9.08014C16.666 9.21652 16.7128 9.35036 16.8038 9.45224C16.8947 9.55413 17.0224 9.61572 17.1588 9.62349Z" fill="#FDFDFF"/>
<path d="M17.1533 12.8664C17.2987 12.8746 17.4432 12.8395 17.5686 12.7655C17.694 12.6915 17.7947 12.5821 17.8579 12.4509C17.9211 12.3197 17.944 12.1728 17.9237 12.0286C17.9034 11.8845 17.8408 11.7496 17.7439 11.6409C17.6469 11.5323 17.52 11.4549 17.379 11.4184C17.2381 11.382 17.0895 11.3881 16.952 11.436C16.8145 11.484 16.6944 11.5716 16.6067 11.6879C16.519 11.8041 16.4678 11.9437 16.4594 12.0891C16.4484 12.2841 16.5153 12.4756 16.6455 12.6214C16.7756 12.7672 16.9583 12.8553 17.1533 12.8664Z" fill="#FDFDFF"/>
<path d="M13.1638 20.3829C13.2939 20.3173 13.4015 20.2147 13.4732 20.0879C13.5449 19.9611 13.5774 19.8159 13.5666 19.6707C13.5558 19.5254 13.5021 19.3867 13.4124 19.2719C13.3227 19.1572 13.201 19.0716 13.0627 19.026C12.9244 18.9805 12.7756 18.977 12.6353 19.0159C12.495 19.0549 12.3694 19.1346 12.2743 19.245C12.1793 19.3554 12.1191 19.4914 12.1015 19.636C12.0838 19.7806 12.1094 19.9271 12.175 20.0571C12.263 20.2314 12.4165 20.3637 12.602 20.4247C12.7874 20.4858 12.9895 20.4708 13.1638 20.3829Z" fill="#FDFDFF"/>
<path d="M17.6289 13.9408C17.4762 14.1738 17.4056 14.4512 17.4282 14.7289C17.4509 15.0066 17.5655 15.2688 17.7539 15.4741C17.9423 15.6793 18.1938 15.8159 18.4686 15.8621C18.7434 15.9083 19.0257 15.8616 19.2709 15.7293C19.5162 15.597 19.7103 15.3867 19.8225 15.1317C19.9348 14.8767 19.9588 14.5915 19.8907 14.3213C19.8227 14.0511 19.6665 13.8113 19.4468 13.6399C19.2272 13.4685 18.9566 13.3752 18.678 13.3749C18.4699 13.3747 18.265 13.4264 18.0819 13.5252C17.8988 13.624 17.7431 13.7668 17.6289 13.9408Z" fill="#FDFDFF"/>
<path d="M19.8064 19.1778C19.7061 18.9789 19.5545 18.8103 19.3672 18.6895C19.18 18.5686 18.964 18.5 18.7413 18.4905C18.5187 18.4811 18.2976 18.5312 18.1008 18.6357C17.904 18.7403 17.7387 18.8954 17.6219 19.0851C17.505 19.2749 17.441 19.4924 17.4362 19.7151C17.4315 19.9379 17.4863 20.1579 17.595 20.3524C17.7037 20.547 17.8623 20.709 18.0545 20.8217C18.2466 20.9345 18.4654 20.994 18.6882 20.994C18.8843 20.9926 19.0773 20.9458 19.2521 20.8571C19.5478 20.7074 19.7722 20.4467 19.8761 20.1319C19.98 19.8172 19.9549 19.4741 19.8064 19.1778Z" fill="#FDFDFF"/>
<path d="M21.9948 19.0902C21.8731 19.0103 21.7304 18.9683 21.5848 18.9695C21.4391 18.9706 21.2971 19.015 21.1767 19.0969C21.0563 19.1788 20.9628 19.2945 20.9082 19.4295C20.8536 19.5645 20.8402 19.7127 20.8698 19.8553C20.8993 19.9979 20.9705 20.1285 21.0743 20.2306C21.1782 20.3328 21.3099 20.4018 21.453 20.4291C21.596 20.4563 21.744 20.4405 21.878 20.3837C22.0121 20.3269 22.1264 20.2316 22.2063 20.1098C22.3131 19.9465 22.3508 19.7475 22.3112 19.5564C22.2715 19.3652 22.1578 19.1976 21.9948 19.0902Z" fill="#FDFDFF"/>
<path d="M24.3926 17.2091C24.3996 17.0856 24.3698 16.9628 24.307 16.8563C24.2442 16.7497 24.1513 16.6642 24.0399 16.6104C23.9285 16.5567 23.8036 16.5372 23.6812 16.5544C23.5587 16.5716 23.4441 16.6248 23.3518 16.7071C23.2595 16.7895 23.1937 16.8973 23.1627 17.017C23.1317 17.1368 23.1369 17.263 23.1776 17.3798C23.2183 17.4965 23.2928 17.5986 23.3915 17.6731C23.4902 17.7476 23.6088 17.7911 23.7323 17.7982C23.898 17.8076 24.0606 17.7508 24.1844 17.6403C24.3082 17.5298 24.3831 17.3747 24.3926 17.2091Z" fill="#FDFDFF"/>
<path d="M26.1253 16.7636C26.0453 16.759 25.9658 16.7782 25.8967 16.8188C25.8276 16.8594 25.7722 16.9196 25.7373 16.9917C25.7024 17.0639 25.6897 17.1447 25.7008 17.2241C25.7119 17.3034 25.7463 17.3777 25.7996 17.4375C25.8529 17.4974 25.9228 17.54 26.0003 17.5601C26.0779 17.5803 26.1597 17.5769 26.2353 17.5506C26.311 17.5242 26.3771 17.476 26.4254 17.412C26.4737 17.3481 26.5019 17.2713 26.5065 17.1913C26.5125 17.084 26.4757 16.9788 26.4043 16.8987C26.3328 16.8185 26.2325 16.7699 26.1253 16.7636Z" fill="#FDFDFF"/>
<path d="M24.4939 20.7805C24.4087 20.7246 24.3088 20.6953 24.2069 20.6963C24.105 20.6972 24.0057 20.7283 23.9215 20.7857C23.8373 20.843 23.772 20.9241 23.7338 21.0186C23.6956 21.113 23.6864 21.2167 23.7071 21.3165C23.7279 21.4162 23.7777 21.5076 23.8504 21.579C23.9231 21.6505 24.0153 21.6987 24.1154 21.7177C24.2155 21.7368 24.319 21.7257 24.4128 21.6859C24.5066 21.6461 24.5865 21.5794 24.6424 21.4942C24.6796 21.4376 24.7052 21.3742 24.7178 21.3077C24.7305 21.2412 24.7299 21.1728 24.7161 21.1066C24.7023 21.0403 24.6756 20.9774 24.6374 20.9214C24.5993 20.8655 24.5506 20.8176 24.4939 20.7805Z" fill="#FDFDFF"/>
<path d="M12.9975 24.5626C12.9305 24.5187 12.852 24.4956 12.7719 24.4962C12.6918 24.4969 12.6137 24.5213 12.5475 24.5664C12.4812 24.6114 12.4298 24.6751 12.3998 24.7494C12.3697 24.8236 12.3623 24.9051 12.3786 24.9836C12.3949 25.062 12.434 25.1339 12.4911 25.1901C12.5482 25.2463 12.6207 25.2843 12.6994 25.2993C12.7781 25.3143 12.8595 25.3056 12.9332 25.2744C13.007 25.2431 13.0699 25.1907 13.1139 25.1238C13.1431 25.0793 13.1633 25.0295 13.1732 24.9772C13.1832 24.9249 13.1828 24.8712 13.172 24.8191C13.1611 24.767 13.1402 24.7175 13.1103 24.6735C13.0803 24.6295 13.042 24.5918 12.9975 24.5626Z" fill="#FDFDFF"/>
<path d="M21.4884 24.5202C21.4169 24.5563 21.3576 24.6128 21.3182 24.6825C21.2787 24.7522 21.2608 24.8321 21.2668 24.912C21.2727 24.9919 21.3022 25.0683 21.3516 25.1314C21.4009 25.1946 21.4679 25.2416 21.544 25.2667C21.6201 25.2918 21.7019 25.2938 21.7791 25.2723C21.8563 25.2509 21.9255 25.207 21.9777 25.1463C22.03 25.0856 22.0631 25.0108 22.0729 24.9312C22.0826 24.8517 22.0686 24.771 22.0325 24.6995C22.0086 24.652 21.9755 24.6096 21.9352 24.5748C21.895 24.5401 21.8482 24.5136 21.7977 24.4969C21.7471 24.4803 21.6938 24.4738 21.6407 24.4778C21.5877 24.4818 21.5359 24.4962 21.4884 24.5202Z" fill="#FDFDFF"/>
<path d="M16.7831 20.4321C16.9359 20.1991 17.0065 19.9217 16.9838 19.644C16.9612 19.3662 16.8465 19.104 16.658 18.8987C16.4696 18.6935 16.218 18.557 15.9432 18.5108C15.6684 18.4646 15.386 18.5114 15.1408 18.6438C14.8956 18.7762 14.7016 18.9866 14.5894 19.2416C14.4772 19.4967 14.4533 19.7819 14.5214 20.0521C14.5896 20.3223 14.746 20.5621 14.9657 20.7334C15.1855 20.9047 15.4561 20.9979 15.7348 20.9981C15.9429 20.9988 16.1478 20.9474 16.331 20.8485C16.5141 20.7497 16.6695 20.6065 16.7831 20.4321Z" fill="#FDFDFF"/>
<path d="M14.2806 22.3544C14.1771 22.2867 14.0559 22.2512 13.9322 22.2524C13.8085 22.2535 13.688 22.2914 13.5858 22.3611C13.4836 22.4307 13.4044 22.5291 13.3581 22.6438C13.3119 22.7585 13.3007 22.8844 13.3259 23.0055C13.3512 23.1265 13.4117 23.2374 13.5 23.3241C13.5882 23.4107 13.7002 23.4693 13.8217 23.4923C13.9432 23.5153 14.0688 23.5018 14.1827 23.4535C14.2965 23.4051 14.3935 23.3241 14.4613 23.2207C14.5521 23.0818 14.5841 22.9126 14.5502 22.7502C14.5163 22.5877 14.4194 22.4454 14.2806 22.3544Z" fill="#FDFDFF"/>
<path d="M17.2006 24.7515C17.0988 24.7457 16.9977 24.7702 16.9098 24.8219C16.822 24.8736 16.7515 24.9502 16.7072 25.042C16.6629 25.1338 16.6469 25.2366 16.661 25.3375C16.6752 25.4384 16.7189 25.5329 16.7867 25.6089C16.8546 25.685 16.9434 25.7392 17.042 25.7648C17.1407 25.7903 17.2447 25.7861 17.3409 25.7525C17.4371 25.719 17.5213 25.6577 17.5826 25.5763C17.644 25.495 17.6799 25.3973 17.6857 25.2955C17.6896 25.228 17.6801 25.1603 17.6579 25.0963C17.6356 25.0324 17.6009 24.9735 17.5559 24.923C17.5108 24.8725 17.4562 24.8313 17.3953 24.8019C17.3343 24.7725 17.2681 24.7554 17.2006 24.7515Z" fill="#FDFDFF"/>
<path d="M17.206 21.5093C17.0605 21.5004 16.9157 21.5349 16.7899 21.6085C16.664 21.682 16.5628 21.7913 16.4991 21.9224C16.4354 22.0534 16.412 22.2005 16.432 22.3449C16.4519 22.4893 16.5142 22.6245 16.6111 22.7334C16.7079 22.8424 16.8349 22.9201 16.976 22.9568C17.117 22.9935 17.2658 22.9875 17.4034 22.9396C17.5411 22.8917 17.6614 22.804 17.7492 22.6876C17.837 22.5713 17.8882 22.4315 17.8965 22.2859C17.9077 22.0914 17.8413 21.9004 17.7119 21.7548C17.5824 21.6092 17.4005 21.5209 17.206 21.5093Z" fill="#FDFDFF"/>
<path d="M20.2177 22.3044C20.1072 22.3605 20.0158 22.4481 19.9551 22.5561C19.8944 22.6641 19.8671 22.7877 19.8767 22.9112C19.8863 23.0348 19.9323 23.1527 20.009 23.25C20.0856 23.3474 20.1894 23.4199 20.3072 23.4582C20.425 23.4965 20.5516 23.4991 20.6708 23.4655C20.7901 23.4319 20.8967 23.3636 20.9772 23.2694C21.0576 23.1752 21.1083 23.0592 21.1228 22.9361C21.1373 22.8131 21.115 22.6885 21.0587 22.5781C21.0215 22.5049 20.9702 22.4397 20.9078 22.3863C20.8454 22.3329 20.7731 22.2923 20.695 22.2669C20.6168 22.2414 20.5345 22.2317 20.4526 22.2381C20.3707 22.2446 20.2909 22.2671 20.2177 22.3044Z" fill="#FDFDFF"/>
</svg>
