<svg width="60" height="60" viewBox="0 0 60 60" fill="none" xmlns="http://www.w3.org/2000/svg">
<path fill-rule="evenodd" clip-rule="evenodd" d="M35.2059 19.8562C34.1431 19.4375 33.116 19.7209 32.389 20.3675C31.6798 20.9982 31.25 21.9699 31.25 23V27C31.25 27.9665 32.0335 28.75 33 28.75H37C38.0301 28.75 39.0018 28.3202 39.6325 27.611C40.2791 26.884 40.5625 25.8569 40.1438 24.7941C39.2558 22.5399 37.4601 20.7442 35.2059 19.8562ZM32.75 27V23C32.75 22.3733 33.0149 21.8183 33.3858 21.4884C33.7389 21.1744 34.1774 21.0632 34.6561 21.2518C36.5233 21.9874 38.0127 23.4767 38.7482 25.3439C38.9368 25.8227 38.8257 26.2611 38.5117 26.6142C38.1817 26.9851 37.6267 27.25 37 27.25H33C32.8619 27.25 32.75 27.1381 32.75 27Z" fill="#B3BBC3"/>
<path fill-rule="evenodd" clip-rule="evenodd" d="M28.9953 20.87C28.3847 20.4744 27.7942 20.3606 27.1457 20.4736C26.595 20.5697 26.0055 20.8338 25.3782 21.115L25.3106 21.1453C24.7887 21.379 24.2851 21.657 23.8054 21.9775C22.1198 23.1037 20.806 24.7046 20.0302 26.5775C19.2544 28.4505 19.0515 30.5114 19.447 32.4997C19.8425 34.488 20.8187 36.3144 22.2522 37.7479C23.6856 39.1813 25.512 40.1576 27.5003 40.5531C29.4886 40.9486 31.5496 40.7456 33.4225 39.9698C35.2955 39.194 36.8963 37.8802 38.0226 36.1946C38.3431 35.715 38.621 35.2113 38.8547 34.6895L38.885 34.6218C39.1662 33.9945 39.4303 33.405 39.5264 32.8543C39.6394 32.2059 39.5256 31.6153 39.1301 31.0048C38.7036 30.3466 38.1199 30.025 37.406 29.8792C36.7721 29.7498 35.98 29.7499 35.0722 29.75L33.5 29.75C32.536 29.75 31.8884 29.7484 31.4054 29.6835C30.9439 29.6214 30.7464 29.5142 30.6161 29.3839C30.4858 29.2536 30.3786 29.0561 30.3165 28.5946C30.2516 28.1116 30.25 27.464 30.25 26.5L30.25 24.9278C30.2501 24.02 30.2502 23.2279 30.1208 22.5941C29.9751 21.8802 29.6534 21.2964 28.9953 20.87ZM25.9236 22.5143C26.6428 22.1922 27.0597 22.0113 27.4034 21.9514C27.669 21.905 27.8776 21.9332 28.1797 22.1289C28.434 22.2937 28.5687 22.4904 28.6511 22.8941C28.7464 23.361 28.75 23.9985 28.75 25L28.75 26.552C28.75 27.4505 28.7499 28.1997 28.8299 28.7945C28.9143 29.4223 29.1 29.9891 29.5555 30.4446C30.0109 30.9 30.5777 31.0857 31.2055 31.1701C31.8003 31.2501 32.5495 31.25 33.448 31.25L35 31.25C36.0016 31.25 36.639 31.2536 37.1059 31.3489C37.5096 31.4313 37.7064 31.566 37.8712 31.8204C38.0668 32.1224 38.095 32.3311 38.0487 32.5967C37.9887 32.9403 37.8078 33.3572 37.4858 34.0764C37.2863 34.5218 37.049 34.9518 36.7754 35.3613C35.8139 36.8002 34.4473 37.9217 32.8485 38.584C31.2496 39.2462 29.4903 39.4195 27.793 39.0819C26.0956 38.7443 24.5365 37.9109 23.3128 36.6872C22.0891 35.4635 21.2558 33.9044 20.9181 32.2071C20.5805 30.5097 20.7538 28.7504 21.4161 27.1515C22.0783 25.5527 23.1998 24.1861 24.6388 23.2247C25.0482 22.9511 25.4782 22.7138 25.9236 22.5143Z" fill="#B3BBC3"/>
</svg>
