<svg width="60" height="60" viewBox="0 0 60 60" fill="none" xmlns="http://www.w3.org/2000/svg">
<path d="M29.9426 19.25H31.5C31.9142 19.25 32.25 19.5858 32.25 20C32.25 20.4142 31.9142 20.75 31.5 20.75H30C27.6218 20.75 25.9136 20.7516 24.6136 20.9264C23.3352 21.0982 22.5645 21.4251 21.9948 21.9948C21.4251 22.5645 21.0982 23.3352 20.9264 24.6136C20.7516 25.9136 20.75 27.6218 20.75 30C20.75 32.3782 20.7516 34.0864 20.9264 35.3864C21.0982 36.6648 21.4251 37.4355 21.9948 38.0052C22.5645 38.5749 23.3352 38.9018 24.6136 39.0736C25.9136 39.2484 27.6218 39.25 30 39.25C32.3782 39.25 34.0864 39.2484 35.3864 39.0736C36.6648 38.9018 37.4355 38.5749 38.0052 38.0052C38.5749 37.4355 38.9018 36.6648 39.0736 35.3864C39.2484 34.0864 39.25 32.3782 39.25 30V28.5C39.25 28.0858 39.5858 27.75 40 27.75C40.4142 27.75 40.75 28.0858 40.75 28.5V30.0574C40.75 32.3658 40.75 34.1748 40.5603 35.5863C40.366 37.031 39.9607 38.1711 39.0659 39.0659C38.1711 39.9607 37.031 40.366 35.5863 40.5603C34.1748 40.75 32.3658 40.75 30.0574 40.75H29.9426C27.6342 40.75 25.8252 40.75 24.4137 40.5603C22.969 40.366 21.8289 39.9607 20.9341 39.0659C20.0393 38.1711 19.634 37.031 19.4397 35.5863C19.25 34.1748 19.25 32.3658 19.25 30.0574V29.9426C19.25 27.6342 19.25 25.8252 19.4397 24.4137C19.634 22.969 20.0393 21.8289 20.9341 20.9341C21.8289 20.0393 22.969 19.634 24.4137 19.4397C25.8252 19.25 27.6342 19.25 29.9426 19.25Z" fill="#B3BBC3"/>
<path fill-rule="evenodd" clip-rule="evenodd" d="M33.25 23C33.25 20.9289 34.9289 19.25 37 19.25C39.0711 19.25 40.75 20.9289 40.75 23C40.75 25.0711 39.0711 26.75 37 26.75C34.9289 26.75 33.25 25.0711 33.25 23ZM37 20.75C35.7574 20.75 34.75 21.7574 34.75 23C34.75 24.2426 35.7574 25.25 37 25.25C38.2426 25.25 39.25 24.2426 39.25 23C39.25 21.7574 38.2426 20.75 37 20.75Z" fill="#B3BBC3"/>
<path d="M31.75 28C31.75 28.4142 32.0858 28.75 32.5 28.75H33.1893L31.1768 30.7626C31.0791 30.8602 30.9209 30.8602 30.8232 30.7626L29.2374 29.1768C28.554 28.4934 27.446 28.4934 26.7626 29.1768L24.4697 31.4697C24.1768 31.7626 24.1768 32.2374 24.4697 32.5303C24.7626 32.8232 25.2374 32.8232 25.5303 32.5303L27.8232 30.2374C27.9209 30.1398 28.0791 30.1398 28.1768 30.2374L29.7626 31.8232C30.446 32.5066 31.554 32.5066 32.2374 31.8232L34.25 29.8107V30.5C34.25 30.9142 34.5858 31.25 35 31.25C35.4142 31.25 35.75 30.9142 35.75 30.5V28C35.75 27.5858 35.4142 27.25 35 27.25H32.5C32.0858 27.25 31.75 27.5858 31.75 28Z" fill="#B3BBC3"/>
</svg>
