<svg width="33" height="33" viewBox="0 0 33 33" fill="none" xmlns="http://www.w3.org/2000/svg">
<circle cx="16.5" cy="16.5" r="16.5" fill="#343434"/>
<path d="M16.6148 7.33331V14.0818C16.6148 14.1104 16.5862 14.139 16.5575 14.139C16.357 14.2266 16.1851 14.3134 15.9846 14.4001C15.7268 14.5156 15.4403 14.6318 15.1825 14.7767L14.2371 15.2105L13.4637 15.5583L12.5183 15.9929C12.2605 16.1092 12.0026 16.2246 11.7162 16.3694C11.5156 16.4562 11.2865 16.5724 11.0859 16.6592C11.0573 16.6592 11.0573 16.6878 11.0286 16.6592H11C11.0859 16.5143 11.1719 16.3981 11.2578 16.254C11.7162 15.4715 12.2032 14.6899 12.6615 13.9074C13.1485 13.0685 13.6642 12.2279 14.1512 11.3881C14.6095 10.6065 15.0679 9.82479 15.5262 9.07178C15.87 8.49148 16.2138 7.94227 16.5289 7.36196C16.5862 7.36196 16.5862 7.33331 16.6148 7.33331C16.6148 7.33331 16.5862 7.33331 16.6148 7.33331Z" fill="#FDFDFF"/>
<path d="M22.1724 16.6592C21.7427 16.9489 21.2843 17.2092 20.8546 17.4695C19.4509 18.3101 18.0758 19.1212 16.6721 19.961C16.6435 19.961 16.6435 19.9896 16.6148 19.9896C16.5862 19.9896 16.5862 19.961 16.5862 19.961V14.1391C16.5862 14.1104 16.6148 14.1104 16.6435 14.1104C16.7581 14.1677 16.8727 14.2266 17.0159 14.2839C17.3597 14.4583 17.7321 14.6031 18.0758 14.7767C18.3909 14.9215 18.6774 15.0664 18.9925 15.1818C19.3077 15.3267 19.5941 15.4716 19.9092 15.6164C20.1671 15.7327 20.4535 15.8481 20.7114 15.9929C20.9692 16.1092 21.2557 16.2246 21.5135 16.3694C21.714 16.4562 21.9145 16.5724 22.1437 16.6592C22.1437 16.6305 22.1437 16.6592 22.1724 16.6592Z" fill="#FDFDFF"/>
<path d="M16.6149 25.6667C16.5862 25.6667 16.6149 25.6667 16.6149 25.6667C16.5862 25.6667 16.5862 25.6667 16.5576 25.6372C15.9846 24.8269 15.4403 24.0444 14.8674 23.2333L13.1486 20.8008C12.6043 20.0191 12.0313 19.2374 11.487 18.4255L11.0573 17.8174C11.0573 17.7887 11.0287 17.7887 11.0287 17.7601C11.0573 17.7601 11.0573 17.7887 11.086 17.7887C11.8595 18.252 12.6616 18.7152 13.435 19.1785C14.3231 19.7294 15.2398 20.2507 16.1279 20.8008C16.2711 20.8875 16.443 20.9743 16.5862 21.061C16.6149 21.061 16.6149 21.0905 16.6149 21.1191V25.6667Z" fill="#FDFDFF"/>
<path d="M11 16.3561C11 16.3274 11 16.3274 11 16.3561C11.2865 16.2112 11.5729 16.0958 11.8594 15.9509L12.9767 15.4295C13.2631 15.2847 13.5496 15.1693 13.8361 15.0244C14.2371 14.8214 14.6668 14.6479 15.0679 14.4449C15.3544 14.3287 15.6408 14.1838 15.9273 14.0684C16.1278 13.9816 16.3284 13.8949 16.5289 13.7786C16.5575 13.7786 16.5575 13.75 16.5862 13.75V19.6579C16.5575 19.6873 16.5575 19.6579 16.5289 19.6579C16.443 19.6006 16.357 19.5711 16.2997 19.513L11.0573 16.3855C11.0286 16.3561 11 16.3561 11 16.3561ZM22.0864 17.4283C22.0864 17.4569 22.0864 17.4569 22.0578 17.4856C20.3963 19.8608 18.7347 22.2066 17.0732 24.5819C16.9013 24.8422 16.7294 25.0738 16.5575 25.3349V20.7293C16.93 20.4976 17.3024 20.266 17.6748 20.0638L22.0578 17.4569C22.0578 17.4283 22.0864 17.4283 22.0864 17.4283Z" fill="#D2D0D0"/>
<path d="M16.6149 14.1104V7.36359L22.1151 16.5732C22.1438 16.6019 22.1724 16.6305 22.1724 16.66C22.0578 16.6027 21.9432 16.5438 21.8 16.4865C21.6568 16.4284 21.5135 16.3416 21.3703 16.2835C21.2843 16.2548 21.1984 16.1967 21.0838 16.1673C20.9406 16.11 20.7687 16.0224 20.6255 15.9651C20.5395 15.9356 20.4536 15.8783 20.3676 15.8489L19.7661 15.5886C19.6515 15.5305 19.5655 15.5018 19.4509 15.4437C19.3077 15.3856 19.1645 15.2988 19.0212 15.2407C18.9353 15.2121 18.8493 15.154 18.7634 15.1253L18.1618 14.8642C18.0472 14.8069 17.9613 14.7775 17.8467 14.7193C17.7035 14.6621 17.5602 14.5745 17.417 14.5164C17.331 14.4591 17.2165 14.4296 17.1305 14.3723L16.6149 14.1112V14.1104Z" fill="#D2D0D0"/>
</svg>
