<svg width="60" height="60" viewBox="0 0 60 60" fill="none" xmlns="http://www.w3.org/2000/svg">
<path d="M23 37V23V28.075V28V37ZM23 39C22.45 39 21.9793 38.8043 21.588 38.413C21.1967 38.0217 21.0007 37.5507 21 37V23C21 22.45 21.196 21.9793 21.588 21.588C21.98 21.1967 22.4507 21.0007 23 21H35L39 25V28.675C38.6833 28.525 38.3583 28.4 38.025 28.3C37.6917 28.2 37.35 28.125 37 28.075V25.85L34.15 23H23V37H29.3C29.4167 37.3667 29.5543 37.7167 29.713 38.05C29.8717 38.3833 30.059 38.7 30.275 39H23ZM29.05 35.85C29.0333 35.7 29.0207 35.5543 29.012 35.413C29.0033 35.2717 28.9993 35.1257 29 34.975C29 34.075 29.1667 33.2083 29.5 32.375C29.8333 31.5417 30.3167 30.8 30.95 30.15C30.8 30.1 30.646 30.0627 30.488 30.038C30.33 30.0133 30.1673 30.0007 30 30C29.1667 30 28.4583 30.2917 27.875 30.875C27.2917 31.4583 27 32.1667 27 33C27 33.65 27.1877 34.2377 27.563 34.763C27.9383 35.2883 28.434 35.6507 29.05 35.85ZM36 40C34.6167 40 33.4377 39.5123 32.463 38.537C31.4883 37.5617 31.0007 36.3827 31 35C30.9993 33.6173 31.487 32.4383 32.463 31.463C33.439 30.4877 34.618 30 36 30C37.382 30 38.5613 30.4877 39.538 31.463C40.5147 32.4383 41.002 33.6173 41 35C40.998 36.3827 40.5103 37.562 39.537 38.538C38.5637 39.514 37.3847 40.0013 36 40ZM36.5 34.8V32H35.5V35.2L37.675 37.375L38.375 36.675L36.5 34.8ZM24 28H33V24H24V28Z" fill="#B3BBC3"/>
</svg>
