<svg width="30" height="32" viewBox="0 0 30 32" fill="none" xmlns="http://www.w3.org/2000/svg">
<path d="M0 4C0 1.79086 1.79086 0 4 0H26C28.2091 0 30 1.79086 30 4V28C30 30.2091 28.2091 32 26 32H4C1.79086 32 0 30.2091 0 28V4Z" fill="#EFE7F4"/>
<path d="M0 4C0 1.79086 1.79086 0 4 0H26C28.2091 0 30 1.79086 30 4V28C30 30.2091 28.2091 32 26 32H4C1.79086 32 0 30.2091 0 28V4Z" stroke="#EFE7F4"/>
<path d="M8 7H22V26H8V7Z" stroke="#EFE7F4"/>
<path d="M8 8H22V24H8V8Z" stroke="#EFE7F4"/>
<path d="M11 12.7312V19.2688C11.3031 19.4438 11.5563 19.6969 11.7313 20H18.2688C18.2688 19.9969 18.2719 19.9938 18.2719 19.9906L18.1313 19.7437L17.1313 17.9937C17.0875 17.9969 17.0437 17.9969 17 17.9969C15.8969 17.9969 15 17.1 15 15.9969C15 14.8937 15.8969 13.9969 17 13.9969C17.0437 13.9969 17.0875 13.9969 17.1313 14L18.1313 12.25L18.2719 12.0031L18.2688 11.9938H11.7313C11.5563 12.2969 11.3031 12.55 11 12.725V12.7312ZM20.0094 19C21.1094 19.0063 22 19.8969 22 21C22 22.1031 21.1031 23 20 23C19.2594 23 18.6125 22.5969 18.2688 22H11.7313C11.3844 22.5969 10.7406 23 10 23C8.89688 23 8 22.1031 8 21C8 20.2594 8.40312 19.6125 9 19.2688V12.7312C8.40312 12.3875 8 11.7406 8 11C8 9.89688 8.89688 9 10 9C10.7406 9 11.3875 9.40312 11.7313 10H18.2688C18.6156 9.40312 19.2594 9 20 9C21.1031 9 22 9.89688 22 11C22 12.1031 21.1094 12.9938 20.0094 13L19.8687 13.2469L18.8687 14.9969L18.7969 15.1219C18.9281 15.3875 19 15.6844 19 16C19 16.3156 18.9281 16.6125 18.7969 16.8781L18.8687 17.0031L19.8687 18.7531L20.0094 19Z" fill="#823DA8"/>
</svg>
