<svg width="32" height="32" viewBox="0 0 32 32" fill="none" xmlns="http://www.w3.org/2000/svg">
<path d="M0 4C0 1.79086 1.79086 0 4 0H28C30.2091 0 32 1.79086 32 4V28C32 30.2091 30.2091 32 28 32H4C1.79086 32 0 30.2091 0 28V4Z" fill="#EFE7F4"/>
<path d="M0 4C0 1.79086 1.79086 0 4 0H28C30.2091 0 32 1.79086 32 4V28C32 30.2091 30.2091 32 28 32H4C1.79086 32 0 30.2091 0 28V4Z" stroke="#EFE7F4"/>
<path d="M8 7H24V26H8V7Z" stroke="#EFE7F4"/>
<g clip-path="url(#clip0_4115_5194)">
<path d="M13.5594 23.4406C12.975 24.025 12.025 24.025 11.4375 23.4406L8.55938 20.5594C7.975 19.975 7.975 19.025 8.55938 18.4375L10.1437 16.8531L11.6437 18.3531C11.8375 18.5469 12.1562 18.5469 12.35 18.3531C12.5437 18.1594 12.5437 17.8406 12.35 17.6469L10.85 16.1469L12.1438 14.8531L13.6438 16.3531C13.8375 16.5469 14.1562 16.5469 14.35 16.3531C14.5437 16.1594 14.5437 15.8406 14.35 15.6469L12.85 14.1469L14.1438 12.8531L15.6438 14.3531C15.8375 14.5469 16.1562 14.5469 16.35 14.3531C16.5438 14.1594 16.5438 13.8406 16.35 13.6469L14.85 12.1469L16.1438 10.8531L17.6438 12.3531C17.8375 12.5469 18.1562 12.5469 18.35 12.3531C18.5438 12.1594 18.5438 11.8406 18.35 11.6469L16.85 10.1469L18.4344 8.56249C19.0188 7.97811 19.9688 7.97811 20.5562 8.56249L23.4344 11.4406C24.0188 12.025 24.0188 12.975 23.4344 13.5625L13.5594 23.4406Z" fill="#823DA8"/>
</g>
<defs>
<clipPath id="clip0_4115_5194">
<path d="M8 8H24V24H8V8Z" fill="white"/>
</clipPath>
</defs>
</svg>
