<svg width="32" height="32" viewBox="0 0 32 32" fill="none" xmlns="http://www.w3.org/2000/svg">
<path d="M0 4C0 1.79086 1.79086 0 4 0H28C30.2091 0 32 1.79086 32 4V28C32 30.2091 30.2091 32 28 32H4C1.79086 32 0 30.2091 0 28V4Z" fill="#EFE7F4"/>
<path d="M0 4C0 1.79086 1.79086 0 4 0H28C30.2091 0 32 1.79086 32 4V28C32 30.2091 30.2091 32 28 32H4C1.79086 32 0 30.2091 0 28V4Z" stroke="#EFE7F4"/>
<path d="M8 7H24V26H8V7Z" stroke="#EFE7F4"/>
<path d="M8 8H24V24H8V8Z" stroke="#EFE7F4"/>
<path d="M10 10C10 9.44687 9.55313 9 9 9C8.44687 9 8 9.44687 8 10V20.5C8 21.8813 9.11875 23 10.5 23H23C23.5531 23 24 22.5531 24 22C24 21.4469 23.5531 21 23 21H10.5C10.225 21 10 20.775 10 20.5V10ZM22.7063 12.7063C23.0969 12.3156 23.0969 11.6813 22.7063 11.2906C22.3156 10.9 21.6812 10.9 21.2906 11.2906L18 14.5844L16.2063 12.7906C15.8156 12.4 15.1813 12.4 14.7906 12.7906L11.2906 16.2906C10.9 16.6812 10.9 17.3156 11.2906 17.7063C11.6813 18.0969 12.3156 18.0969 12.7063 17.7063L15.5 14.9156L17.2937 16.7094C17.6844 17.1 18.3188 17.1 18.7094 16.7094L22.7094 12.7094L22.7063 12.7063Z" fill="#823DA8"/>
</svg>
