<svg width="60" height="60" viewBox="0 0 60 60" fill="none" xmlns="http://www.w3.org/2000/svg">
<path d="M27 35.25C26.5858 35.25 26.25 35.5858 26.25 36C26.25 36.4142 26.5858 36.75 27 36.75H33C33.4142 36.75 33.75 36.4142 33.75 36C33.75 35.5858 33.4142 35.25 33 35.25H27Z" fill="#B3BBC3"/>
<path fill-rule="evenodd" clip-rule="evenodd" d="M30 19.25C29.2919 19.25 28.6485 19.4528 27.9506 19.7922C27.2758 20.1203 26.4964 20.6041 25.5229 21.2083L23.4563 22.4909C22.5351 23.0626 21.7974 23.5204 21.2289 23.9558C20.6401 24.4067 20.1879 24.8659 19.8613 25.4626C19.5354 26.0581 19.3886 26.6917 19.3182 27.4407C19.25 28.1665 19.25 29.0541 19.25 30.1672V31.7799C19.25 33.6837 19.25 35.1866 19.4027 36.3616C19.5594 37.567 19.8886 38.5401 20.6324 39.3094C21.3796 40.0824 22.3305 40.4277 23.5076 40.5914C24.6485 40.75 26.1056 40.75 27.9418 40.75H32.0581C33.8944 40.75 35.3515 40.75 36.4924 40.5914C37.6695 40.4277 38.6204 40.0824 39.3676 39.3094C40.1114 38.5401 40.4406 37.567 40.5973 36.3616C40.75 35.1866 40.75 33.6838 40.75 31.7799V30.1672C40.75 29.0541 40.75 28.1665 40.6818 27.4407C40.6114 26.6917 40.4646 26.0581 40.1387 25.4626C39.8121 24.8659 39.3599 24.4067 38.7711 23.9558C38.2026 23.5204 37.4649 23.0626 36.5437 22.4909L34.4771 21.2083C33.5036 20.6041 32.7241 20.1203 32.0494 19.7922C31.3515 19.4528 30.7081 19.25 30 19.25ZM26.2795 22.5041C27.2953 21.8737 28.0095 21.4315 28.6065 21.1412C29.1882 20.8583 29.6002 20.75 30 20.75C30.3998 20.75 30.8118 20.8583 31.3935 21.1412C31.9905 21.4315 32.7047 21.8737 33.7205 22.5041L35.7205 23.7454C36.6813 24.3417 37.3559 24.7613 37.8591 25.1467C38.3487 25.5216 38.6303 25.8311 38.8229 26.1829C39.0162 26.5359 39.129 26.9487 39.1884 27.581C39.2492 28.2286 39.25 29.0458 39.25 30.2039V31.725C39.25 33.6959 39.2485 35.1012 39.1098 36.1683C38.9736 37.2163 38.717 37.8244 38.2892 38.2669C37.8649 38.7058 37.2871 38.9664 36.2858 39.1057C35.2602 39.2483 33.9075 39.25 32 39.25H28C26.0925 39.25 24.7398 39.2483 23.7142 39.1057C22.7129 38.9664 22.1351 38.7058 21.7108 38.2669C21.283 37.8244 21.0264 37.2163 20.8902 36.1683C20.7515 35.1012 20.75 33.6959 20.75 31.725V30.2039C20.75 29.0458 20.7508 28.2286 20.8116 27.581C20.871 26.9487 20.9838 26.5359 21.1771 26.1829C21.3697 25.8311 21.6513 25.5216 22.1409 25.1467C22.6441 24.7613 23.3187 24.3417 24.2795 23.7454L26.2795 22.5041Z" fill="#B3BBC3"/>
</svg>
