<svg width="60" height="60" viewBox="0 0 60 60" fill="none" xmlns="http://www.w3.org/2000/svg">
<path fill-rule="evenodd" clip-rule="evenodd" d="M30 26.25C27.9289 26.25 26.25 27.9289 26.25 30C26.25 32.0711 27.9289 33.75 30 33.75C32.0711 33.75 33.75 32.0711 33.75 30C33.75 27.9289 32.0711 26.25 30 26.25ZM27.75 30C27.75 28.7574 28.7574 27.75 30 27.75C31.2426 27.75 32.25 28.7574 32.25 30C32.25 31.2426 31.2426 32.25 30 32.25C28.7574 32.25 27.75 31.2426 27.75 30Z" fill="#B3BBC3"/>
<path fill-rule="evenodd" clip-rule="evenodd" d="M29.9747 19.25C29.5303 19.25 29.1592 19.25 28.8546 19.2708C28.5375 19.2924 28.238 19.339 27.9476 19.4593C27.2738 19.7384 26.7384 20.2738 26.4593 20.9476C26.314 21.2984 26.2747 21.6681 26.2596 22.07C26.2476 22.393 26.0845 22.6625 25.844 22.8014C25.6034 22.9403 25.2884 22.9467 25.0027 22.7957C24.6471 22.6078 24.3073 22.457 23.9308 22.4074C23.2077 22.3122 22.4764 22.5082 21.8978 22.9522C21.6484 23.1435 21.4583 23.3796 21.281 23.6434C21.1107 23.8968 20.9252 24.2181 20.7029 24.6031L20.6777 24.6468C20.4555 25.0317 20.2699 25.353 20.1356 25.6272C19.9958 25.9127 19.8864 26.1954 19.8454 26.507C19.7502 27.2301 19.9462 27.9614 20.3902 28.5401C20.6213 28.8412 20.9217 29.0602 21.2622 29.2741C21.5359 29.4461 21.6879 29.7221 21.6879 30C21.6878 30.2778 21.5359 30.5538 21.2622 30.7258C20.9217 30.9397 20.6212 31.1587 20.3901 31.4599C19.9461 32.0385 19.7501 32.7698 19.8453 33.4929C19.8863 33.8045 19.9957 34.0873 20.1355 34.3727C20.2698 34.6469 20.4553 34.9682 20.6776 35.3531L20.7028 35.3969C20.9251 35.7818 21.1106 36.1031 21.2809 36.3565C21.4582 36.6203 21.6483 36.8564 21.8977 37.0477C22.4763 37.4917 23.2076 37.6877 23.9307 37.5925C24.3072 37.5429 24.647 37.3922 25.0025 37.2043C25.2883 37.0532 25.6033 37.0596 25.8439 37.1986C26.0845 37.3375 26.2476 37.607 26.2596 37.9301C26.2747 38.3319 26.314 38.7016 26.4593 39.0524C26.7384 39.7262 27.2738 40.2616 27.9476 40.5407C28.238 40.661 28.5375 40.7076 28.8546 40.7292C29.1592 40.75 29.5303 40.75 29.9747 40.75H30.0252C30.4697 40.75 30.8407 40.75 31.1454 40.7292C31.4625 40.7076 31.762 40.661 32.0524 40.5407C32.7262 40.2616 33.2616 39.7262 33.5407 39.0524C33.686 38.7016 33.7253 38.3319 33.7403 37.93C33.7524 37.607 33.9154 37.3375 34.156 37.1985C34.3966 37.0596 34.7116 37.0532 34.9974 37.2042C35.3529 37.3921 35.6927 37.5429 36.0692 37.5924C36.7923 37.6876 37.5236 37.4917 38.1022 37.0477C38.3516 36.8563 38.5417 36.6203 38.719 36.3565C38.8893 36.1031 39.0748 35.7818 39.297 35.3969L39.3223 35.3531C39.5445 34.9682 39.7301 34.6468 39.8644 34.3726C40.0042 34.0872 40.1135 33.8045 40.1546 33.4929C40.2498 32.7697 40.0538 32.0384 39.6098 31.4598C39.3787 31.1586 39.0782 30.9397 38.7378 30.7258C38.464 30.5538 38.3121 30.2778 38.3121 29.9999C38.3121 29.7221 38.464 29.4462 38.7377 29.2742C39.0783 29.0603 39.3788 28.8414 39.6099 28.5401C40.0539 27.9615 40.2499 27.2302 40.1547 26.5071C40.1136 26.1955 40.0043 25.9127 39.8645 25.6273C39.7302 25.3531 39.5447 25.0318 39.3224 24.647L39.2972 24.6032C39.0749 24.2183 38.8894 23.8969 38.7191 23.6435C38.5418 23.3797 38.3517 23.1436 38.1023 22.9523C37.5237 22.5083 36.7924 22.3123 36.0692 22.4075C35.6928 22.4571 35.353 22.6078 34.9975 22.7957C34.7117 22.9468 34.3967 22.9404 34.1561 22.8014C33.9155 22.6625 33.7524 22.393 33.7403 22.0699C33.7253 21.6681 33.686 21.2984 33.5407 20.9476C33.2616 20.2738 32.7262 19.7384 32.0524 19.4593C31.762 19.339 31.4625 19.2924 31.1454 19.2708C30.8407 19.25 30.4697 19.25 30.0252 19.25H29.9747ZM28.5216 20.8452C28.5988 20.8132 28.716 20.7837 28.9567 20.7673C29.2042 20.7504 29.5238 20.75 30 20.75C30.4762 20.75 30.7958 20.7504 31.0432 20.7673C31.284 20.7837 31.4012 20.8132 31.4783 20.8452C31.7846 20.972 32.028 21.2154 32.1548 21.5216C32.1949 21.6183 32.228 21.7689 32.2414 22.126C32.271 22.9183 32.68 23.6813 33.4061 24.1005C34.1321 24.5197 34.9974 24.4924 35.6984 24.1219C36.0143 23.9549 36.1614 23.9083 36.265 23.8947C36.5937 23.8514 36.9261 23.9405 37.1891 24.1423C37.2554 24.1931 37.3395 24.2799 37.4741 24.4802C37.6125 24.686 37.7726 24.9626 38.0107 25.375C38.2488 25.7874 38.4083 26.0644 38.5174 26.2871C38.6235 26.5038 38.6566 26.6201 38.6675 26.7029C38.7108 27.0316 38.6217 27.364 38.4199 27.627C38.3562 27.71 38.2424 27.814 37.9397 28.0041C37.2684 28.426 36.8122 29.1616 36.8121 29.9999C36.8121 30.8383 37.2683 31.574 37.9397 31.9959C38.2423 32.186 38.3561 32.29 38.4198 32.373C38.6216 32.636 38.7107 32.9684 38.6674 33.2971C38.6565 33.3799 38.6234 33.4961 38.5173 33.7128C38.4082 33.9355 38.2487 34.2125 38.0106 34.6249C37.7725 35.0373 37.6124 35.3139 37.474 35.5198C37.3394 35.72 37.2553 35.8068 37.189 35.8576C36.926 36.0595 36.5936 36.1485 36.2649 36.1053C36.1613 36.0916 36.0142 36.045 35.6983 35.8781C34.9973 35.5075 34.132 35.4803 33.4059 35.8995C32.68 36.3187 32.271 37.0816 32.2414 37.874C32.228 38.2311 32.1949 38.3817 32.1548 38.4784C32.028 38.7846 31.7846 39.028 31.4783 39.1549C31.4012 39.1868 31.284 39.2163 31.0432 39.2327C30.7958 39.2496 30.4762 39.25 30 39.25C29.5238 39.25 29.2042 39.2496 28.9567 39.2327C28.716 39.2163 28.5988 39.1868 28.5216 39.1549C28.2154 39.028 27.972 38.7846 27.8451 38.4784C27.8051 38.3817 27.7719 38.2311 27.7586 37.874C27.729 37.0817 27.32 36.3187 26.5939 35.8995C25.8678 35.4803 25.0026 35.5076 24.3016 35.8781C23.9856 36.0451 23.8386 36.0917 23.7349 36.1053C23.4063 36.1486 23.0738 36.0595 22.8108 35.8577C22.7446 35.8069 22.6604 35.7201 22.5259 35.5198C22.3875 35.314 22.2274 35.0374 21.9893 34.625C21.7512 34.2126 21.5917 33.9356 21.4826 33.7129C21.3765 33.4962 21.3434 33.3799 21.3325 33.2971C21.2892 32.9684 21.3783 32.636 21.5801 32.373C21.6438 32.2901 21.7576 32.186 22.0602 31.9959C22.7316 31.5741 23.1878 30.8384 23.1879 30.0001C23.1879 29.1616 22.7317 28.4259 22.0602 28.004C21.7577 27.8139 21.6438 27.7099 21.5802 27.6269C21.3784 27.3639 21.2893 27.0315 21.3326 26.7028C21.3435 26.62 21.3766 26.5038 21.4827 26.2871C21.5918 26.0643 21.7513 25.7873 21.9894 25.3749C22.2275 24.9625 22.3876 24.686 22.526 24.4801C22.6605 24.2798 22.7447 24.1931 22.8109 24.1422C23.0739 23.9404 23.4064 23.8513 23.735 23.8946C23.8387 23.9083 23.9858 23.9548 24.3017 24.1218C25.0027 24.4924 25.8679 24.5196 26.5939 24.1005C27.32 23.6813 27.729 22.9184 27.7586 22.126C27.7719 21.7689 27.8051 21.6183 27.8451 21.5216C27.972 21.2154 28.2154 20.972 28.5216 20.8452Z" fill="#B3BBC3"/>
</svg>
