<svg width="60" height="60" viewBox="0 0 60 60" fill="none" xmlns="http://www.w3.org/2000/svg">
<path fill-rule="evenodd" clip-rule="evenodd" d="M38.9235 29.7502C38.9032 29.75 38.8766 29.75 38.8333 29.75H36.2308C34.8074 29.75 33.75 30.8087 33.75 32C33.75 33.1913 34.8074 34.25 36.2308 34.25H38.8333C38.8766 34.25 38.9032 34.25 38.9235 34.2498C38.9427 34.2496 38.948 34.2492 38.948 34.2492C39.154 34.2367 39.2427 34.0976 39.2495 34.0139C39.2495 34.0139 39.2497 34.0077 39.2498 33.9986C39.25 33.9808 39.25 33.9572 39.25 33.9167V30.0833C39.25 30.0609 39.25 30.0437 39.25 30.0297C39.2499 30.0185 39.2499 30.0093 39.2498 30.0014C39.2497 29.9924 39.2495 29.9861 39.2495 29.9861C39.2427 29.9024 39.154 29.7633 38.9479 29.7508C38.9479 29.7508 38.943 29.7504 38.9235 29.7502ZM38.8499 28.25C38.9163 28.25 38.9803 28.2499 39.0391 28.2535C39.9104 28.3066 40.681 28.9638 40.7458 29.8818C40.7501 29.942 40.75 30.0069 40.75 30.067C40.75 30.0725 40.75 30.0779 40.75 30.0833V33.9167C40.75 33.9221 40.75 33.9275 40.75 33.933C40.75 33.9931 40.7501 34.058 40.7458 34.1182C40.681 35.0362 39.9104 35.6934 39.0391 35.7465C38.9803 35.7501 38.9163 35.75 38.8499 35.75C38.8444 35.75 38.8389 35.75 38.8333 35.75H36.2308C34.0856 35.75 32.25 34.1224 32.25 32C32.25 29.8776 34.0856 28.25 36.2308 28.25H38.8333C38.8389 28.25 38.8444 28.25 38.8499 28.25Z" fill="#B3BBC3"/>
<path d="M37 32C37 32.5523 36.5523 33 36 33C35.4477 33 35 32.5523 35 32C35 31.4477 35.4477 31 36 31C36.5523 31 37 31.4477 37 32Z" fill="#B3BBC3"/>
<path fill-rule="evenodd" clip-rule="evenodd" d="M38.8499 28.25C38.9163 28.25 38.9803 28.2499 39.0391 28.2535C39.2645 28.2672 39.4832 28.3214 39.6847 28.4101C39.5777 26.8036 39.2831 25.5656 38.3588 24.6412C37.6104 23.8929 36.6614 23.5608 35.489 23.4031L35.4467 23.3975C35.4362 23.3898 35.4255 23.3822 35.4145 23.3749L31.679 20.8981C30.3758 20.034 28.6242 20.034 27.321 20.8981L23.5855 23.3749C23.5745 23.3822 23.5638 23.3898 23.5533 23.3975L23.511 23.4031C22.3386 23.5608 21.3896 23.8929 20.6412 24.6412C19.8929 25.3896 19.5608 26.3386 19.4031 27.511C19.25 28.6502 19.25 30.1058 19.25 31.9436V32.0564C19.25 33.8942 19.25 35.3498 19.4031 36.489C19.5608 37.6614 19.8929 38.6104 20.6412 39.3588C21.3896 40.1071 22.3386 40.4392 23.511 40.5969C24.6502 40.75 26.1058 40.75 27.9436 40.75H31.0564C32.8942 40.75 34.3498 40.75 35.489 40.5969C36.6614 40.4392 37.6104 40.1071 38.3588 39.3588C39.2831 38.4344 39.5777 37.1964 39.6847 35.5899C39.4832 35.6786 39.2645 35.7328 39.0391 35.7465C38.9803 35.7501 38.9163 35.75 38.8499 35.75L38.8333 35.75H38.1679C38.0541 37.0915 37.7966 37.7996 37.2981 38.2981C36.8749 38.7213 36.2952 38.975 35.2892 39.1102C34.2615 39.2484 32.9068 39.25 31 39.25H28C26.0932 39.25 24.7385 39.2484 23.7108 39.1102C22.7048 38.975 22.1251 38.7213 21.7019 38.2981C21.2787 37.8749 21.025 37.2952 20.8898 36.2892C20.7516 35.2615 20.75 33.9068 20.75 32C20.75 30.0932 20.7516 28.7385 20.8898 27.7108C21.025 26.7048 21.2787 26.1251 21.7019 25.7019C22.1251 25.2787 22.7048 25.025 23.7108 24.8898C24.7385 24.7516 26.0932 24.75 28 24.75H31C32.9068 24.75 34.2615 24.7516 35.2892 24.8898C36.2952 25.025 36.8749 25.2787 37.2981 25.7019C37.7966 26.2004 38.0541 26.9085 38.1679 28.25H38.8333L38.8499 28.25ZM27.9436 23.25H31.0564C31.5729 23.25 32.0592 23.25 32.5168 23.2534L30.8501 22.1482C30.0493 21.6173 28.9507 21.6173 28.15 22.1482L26.4832 23.2534C26.9408 23.25 27.4271 23.25 27.9436 23.25Z" fill="#B3BBC3"/>
<path d="M24 27.25C23.5858 27.25 23.25 27.5858 23.25 28C23.25 28.4142 23.5858 28.75 24 28.75H28C28.4142 28.75 28.75 28.4142 28.75 28C28.75 27.5858 28.4142 27.25 28 27.25H24Z" fill="#B3BBC3"/>
<path fill-rule="evenodd" clip-rule="evenodd" d="M37 32C37 32.5523 36.5523 33 36 33C35.4477 33 35 32.5523 35 32C35 31.4477 35.4477 31 36 31C36.5523 31 37 31.4477 37 32Z" fill="#B3BBC3"/>
</svg>
