<svg width="16" height="22" viewBox="0 0 16 22" fill="none" xmlns="http://www.w3.org/2000/svg">
<path d="M11.0959 21.6829L15.6641 17.2821C15.7706 17.1796 15.8551 17.0578 15.9127 16.9237C15.9703 16.7897 16 16.6461 16 16.501C16 16.208 15.8792 15.927 15.6641 15.7199C15.4491 15.5127 15.1574 15.3963 14.8533 15.3963C14.5491 15.3963 14.2575 15.5127 14.0424 15.7199L11.4271 18.2503L11.4271 5.499C11.4271 5.20721 11.3068 4.92737 11.0926 4.72104C10.8785 4.51472 10.588 4.3988 10.2851 4.3988C9.98218 4.3988 9.6917 4.51472 9.47752 4.72104C9.26335 4.92737 9.14302 5.20721 9.14302 5.499L9.14302 20.9018C9.14415 21.119 9.21199 21.331 9.338 21.5112C9.464 21.6913 9.64253 21.8314 9.85109 21.914C10.0591 21.9982 10.2883 22.0213 10.5098 21.9801C10.7314 21.939 10.9353 21.8356 11.0959 21.6829ZM6.85892 16.501L6.85892 1.0982C6.8578 0.880997 6.78996 0.66897 6.66395 0.488845C6.53795 0.30872 6.35941 0.168557 6.15085 0.0860201C5.94287 0.00176747 5.71365 -0.0212517 5.4921 0.0198673C5.27056 0.0609863 5.06662 0.164401 4.90602 0.317062L0.337818 4.71786C0.230775 4.82014 0.145811 4.94182 0.0878303 5.07589C0.0298507 5.20996 -2.3402e-07 5.35376 -2.40369e-07 5.499C-2.46718e-07 5.64424 0.0298507 5.78804 0.0878303 5.92211C0.145811 6.05618 0.230775 6.17787 0.337818 6.28014C0.443986 6.38326 0.570297 6.46511 0.709467 6.52097C0.848635 6.57682 0.997908 6.60558 1.14867 6.60558C1.29944 6.60558 1.44871 6.57682 1.58788 6.52097C1.72705 6.46511 1.85336 6.38326 1.95953 6.28014L4.57482 3.74968L4.57482 16.501C4.57482 16.7928 4.69514 17.0726 4.90932 17.279C5.1235 17.4853 5.41398 17.6012 5.71687 17.6012C6.01976 17.6012 6.31025 17.4853 6.52442 17.279C6.7386 17.0726 6.85892 16.7928 6.85892 16.501Z" fill="#343434"/>
</svg>
