<svg width="33" height="33" viewBox="0 0 33 33" fill="none" xmlns="http://www.w3.org/2000/svg">
<circle cx="16.5" cy="16.5" r="16.5" fill="#50AF95"/>
<path fill-rule="evenodd" clip-rule="evenodd" d="M10.6926 8.60616L7.34837 15.6293C7.335 15.6547 7.33039 15.6839 7.33527 15.7122C7.34014 15.7405 7.35423 15.7665 7.37533 15.786L16.4028 24.4408C16.4288 24.4642 16.4626 24.4772 16.4975 24.4772C16.5325 24.4772 16.5662 24.4642 16.5922 24.4408L25.6251 15.786C25.646 15.7663 25.6599 15.7404 25.6648 15.7122C25.6697 15.6839 25.6652 15.6548 25.6521 15.6293L22.3078 8.60616C22.299 8.58173 22.2826 8.56073 22.2611 8.54615C22.2395 8.53157 22.214 8.52415 22.188 8.52496H10.8112C10.7856 8.52566 10.7607 8.53368 10.7395 8.54806C10.7182 8.56245 10.7016 8.58261 10.6914 8.60616H10.6926Z" fill="#FDFDFF"/>
<path fill-rule="evenodd" clip-rule="evenodd" d="M17.662 16.3478C17.5973 16.3532 17.2623 16.3748 16.5166 16.3748C15.9224 16.3748 15.5009 16.3586 15.3496 16.3478C13.0537 16.2453 11.3411 15.8453 11.3411 15.3699C11.3411 14.8944 13.0537 14.4893 15.3496 14.3869V15.9481C15.4994 15.9589 15.9278 15.9859 16.522 15.9859C17.235 15.9859 17.5916 15.9535 17.6566 15.9481V14.3869C19.9471 14.4893 21.6596 14.8893 21.6596 15.3645C21.6596 15.8397 19.9519 16.2453 17.662 16.3478ZM17.662 14.2302V12.8307H20.8603V10.6969H12.1516V12.8307H15.3496V14.2302C12.7511 14.35 10.7955 14.862 10.7955 15.4834C10.7955 16.1048 12.7511 16.6126 15.3496 16.7367V21.2155H17.662V16.7367C20.2551 16.6168 22.2055 16.1045 22.2055 15.4888C22.2055 14.8731 20.2551 14.3488 17.662 14.2305V14.2302Z" fill="#50AF95"/>
</svg>
